<svg xmlns="http://www.w3.org/2000/svg" version="1.1" xmlns:xlink="http://www.w3.org/1999/xlink" xmlns:svgjs="http://svgjs.dev/svgjs" width="128" height="128" viewBox="0 0 128 128"><g transform="matrix(0.8046875,0,0,0.8046875,12.760752631578946,31.834983968549196)"><svg viewBox="0 0 95 60" data-background-color="#f0cf90" preserveAspectRatio="xMidYMid meet" height="80" width="128" xmlns="http://www.w3.org/2000/svg" xmlns:xlink="http://www.w3.org/1999/xlink"><g id="tight-bounds" transform="matrix(1,0,0,1,-0.24049999999999727,-0.02095593185167388)"><svg viewBox="0 0 95.48100000000001 60.04191186370333" height="60.04191186370333" width="95.48100000000001"><g><svg viewBox="0 0 95.48100000000001 60.04191186370333" height="60.04191186370333" width="95.48100000000001"><g><svg viewBox="0 0 95.48100000000001 60.04191186370333" height="60.04191186370333" width="95.48100000000001"><g id="textblocktransform"><svg viewBox="0 0 95.48100000000001 60.04191186370333" height="60.04191186370333" width="95.48100000000001" id="textblock"><g><svg viewBox="0 0 95.48100000000001 60.04191186370333" height="60.04191186370333" width="95.48100000000001"><g><svg viewBox="0 0 95.48100000000001 60.04191186370333" height="60.04191186370333" width="95.48100000000001"><g><svg xmlns="http://www.w3.org/2000/svg" xmlns:xlink="http://www.w3.org/1999/xlink" version="1.1" x="0" y="0" viewBox="4.9474295860473205 21.671160838059034 90.11223695380123 56.66583916194095" enable-background="new 0 0 100.007 100.006" xml:space="preserve" height="60.04191186370333" width="95.48100000000001" class="icon-icon-0" data-fill-palette-color="accent" id="icon-0"><path fill="#000000" d="M62.424 33.77c0 0.726-0.588 1.312-1.312 1.312h-22.1c-0.725 0-1.312-0.587-1.312-1.312 0-0.725 0.588-1.312 1.312-1.312h22.1C61.836 32.458 62.424 33.045 62.424 33.77zM56.901 38.494H43.229c-0.726 0-1.312 0.587-1.312 1.312 0 0.725 0.587 1.312 1.312 1.312h13.672c0.726 0 1.312-0.588 1.312-1.312C58.213 39.081 57.626 38.494 56.901 38.494zM37.056 51.227c0 3.038-2.473 5.51-5.511 5.51s-5.511-2.472-5.511-5.51 2.473-5.51 5.511-5.51S37.056 48.189 37.056 51.227zM34.431 51.227c0-1.591-1.295-2.885-2.886-2.885s-2.886 1.294-2.886 2.885 1.295 2.885 2.886 2.885S34.431 52.818 34.431 51.227zM74.249 51.227c0 3.038-2.471 5.51-5.508 5.51-3.038 0-5.511-2.472-5.511-5.51s2.473-5.51 5.511-5.51C71.778 45.717 74.249 48.189 74.249 51.227zM71.624 51.227c0-1.591-1.293-2.885-2.883-2.885-1.591 0-2.886 1.294-2.886 2.885s1.295 2.885 2.886 2.885C70.331 54.112 71.624 52.818 71.624 51.227zM95.058 29.893c-0.039 0.819-1.089 20.094-10.202 23.297-0.142 0.05-0.289 0.074-0.436 0.074-0.22 0-0.439-0.056-0.636-0.165-0.038-0.021-0.974-0.558-2.323-1.646 0.224 6.448-0.383 21.798-10.896 24.856-0.119 0.034-0.243 0.052-0.366 0.052-0.062 0-0.123-0.004-0.184-0.013-2.158-0.304-6.73-1.037-10.975-2.272-0.918 1.556-3.327 4.261-9.018 4.261-5.644 0-8.272-2.661-9.318-4.184-4.169 1.188-8.596 1.897-10.709 2.195-0.061 0.009-0.122 0.013-0.184 0.013-0.123 0-0.247-0.018-0.366-0.052C18.93 73.251 18.324 57.902 18.547 51.453c-1.35 1.088-2.285 1.626-2.323 1.646-0.196 0.109-0.415 0.165-0.636 0.165-0.146 0-0.294-0.024-0.436-0.074C6.04 49.987 4.989 30.712 4.949 29.893c-0.031-0.638 0.4-1.205 1.023-1.345l9.764-2.185 11.353-4.599c0.212-0.085 0.438-0.106 0.659-0.078 0.039 0 0.072-0.016 0.111-0.012 0.086 0.007 8.725 0.771 22.205 0.771 13.492 0 22.113-0.764 22.198-0.771 0.014-0.001 0.026 0.005 0.039 0.004 0.208-0.021 0.42 0.006 0.619 0.086l11.354 4.599 9.761 2.185C94.658 28.688 95.09 29.255 95.058 29.893zM26.498 24.837l-9.877 4c-0.067 0.027-0.136 0.049-0.206 0.064l-8.771 1.963c0.445 5.54 2.459 17.041 7.83 19.62C17.98 48.868 28.236 41.189 26.498 24.837zM56.455 73.24c-3.224-1.171-5.851-2.682-6.45-4.57-0.61 1.924-3.327 3.456-6.633 4.635 0.973 1.046 2.949 2.408 6.651 2.408C53.855 75.712 55.657 74.262 56.455 73.24zM52.707 55.79c-0.321-0.177-1.082-0.451-2.7-0.451-1.626 0-2.388 0.277-2.707 0.454 0.121 0.854 0.615 2.394 2.601 2.394C52.04 58.186 52.575 56.648 52.707 55.79zM78.671 48.896c-0.001-0.01 0.003-0.017 0.003-0.026-4.142-4.373-9.079-12.293-7.749-24.459-3.096 0.22-10.587 0.66-20.861 0.66-10.415 0-17.965-0.452-20.981-0.668 1.332 12.17-3.605 20.092-7.747 24.467-0.001 0.009 0.003 0.017 0.002 0.026-0.022 0.215-2.126 21.352 8.579 24.812 8.146-1.181 17.088-3.784 17.598-5.843 0.77-3.104 1.07-5.894 1.174-7.125-0.001-0.018-0.003-0.038-0.004-0.055-2.942-0.611-4.049-3.41-4.049-5.368 0-0.139 0.022-0.276 0.065-0.408 0.168-0.515 1.049-2.196 5.306-2.196s5.135 1.683 5.303 2.198c0.043 0.132 0.064 0.269 0.064 0.406 0 1.923-1.107 4.66-4.044 5.336-0.002 0.026-0.005 0.061-0.007 0.089 0.103 1.23 0.402 4.021 1.172 7.123 0.511 2.06 9.455 4.664 17.6 5.843C80.797 70.248 78.694 49.111 78.671 48.896zM92.365 30.865l-8.771-1.963c-0.069-0.016-0.139-0.037-0.206-0.064l-9.877-4c-1.74 16.352 8.518 24.03 11.024 25.647C89.907 47.906 91.918 36.405 92.365 30.865z" data-fill-palette-color="accent"></path></svg></g></svg></g></svg></g></svg></g></svg></g><g></g></svg></g><defs></defs></svg><rect width="95.48100000000001" height="60.04191186370333" fill="none" stroke="none" visibility="hidden"></rect></g></svg></g></svg>